<?xml version="1.0" standalone="no"?>
<!DOCTYPE svg PUBLIC "-//W3C//DTD SVG 20010904//EN"
 "http://www.w3.org/TR/2001/REC-SVG-20010904/DTD/svg10.dtd">
<svg version="1.0" xmlns="http://www.w3.org/2000/svg"
 width="512.000000pt" height="512.000000pt" viewBox="0 0 512.000000 512.000000"
 preserveAspectRatio="xMidYMid meet">

<g transform="translate(0.000000,512.000000) scale(0.100000,-0.100000)"
fill="#000000" stroke="none">
<path d="M227 4966 c-61 -17 -122 -59 -164 -114 -67 -88 -63 44 -63 -1969 0
-1810 0 -1823 20 -1843 11 -11 28 -20 38 -20 9 0 195 115 412 254 l395 254 6
-126 c6 -157 26 -209 105 -281 95 -87 -15 -81 1409 -81 l1261 0 699 -450 c385
-247 708 -450 718 -450 9 0 26 9 37 20 20 20 20 29 18 1863 l-3 1842 -21 46
c-31 67 -87 124 -152 156 l-57 28 -317 3 -317 3 -3 322 c-3 304 -4 325 -24
367 -32 68 -88 126 -152 157 l-57 28 -1870 2 c-1511 1 -1879 -1 -1918 -11z
m3767 -118 c52 -16 108 -72 124 -124 16 -55 18 -2489 1 -2547 -13 -48 -62
-104 -107 -122 -29 -13 -217 -15 -1305 -15 l-1270 0 -653 -420 c-359 -231
-655 -420 -658 -420 -12 0 -6 3483 5 3525 13 47 75 110 122 124 52 15 3690 14
3741 -1z m868 -878 c50 -14 97 -55 119 -105 18 -38 19 -114 19 -1797 l0 -1757
-607 391 c-335 215 -630 405 -658 422 l-50 31 -1286 5 -1285 5 -37 25 c-22 15
-48 46 -62 74 -23 46 -25 60 -25 197 l0 147 242 156 243 156 1256 0 c1425 0
1318 -6 1414 82 32 29 62 68 76 100 l24 53 3 913 2 912 288 0 c166 0 303 -4
324 -10z"/>
<path d="M995 3807 c-101 -34 -189 -107 -234 -194 -88 -174 -17 -398 156 -491
218 -116 478 -1 539 238 57 225 -110 447 -345 457 -45 2 -92 -3 -116 -10z
m213 -136 c99 -51 154 -165 131 -271 -50 -232 -361 -276 -465 -65 -67 137 -4
296 138 347 63 22 140 18 196 -11z"/>
<path d="M2025 3807 c-200 -67 -310 -255 -261 -447 71 -277 403 -376 616 -184
50 45 106 157 115 228 27 210 -140 404 -355 413 -44 2 -91 -3 -115 -10z m214
-136 c45 -23 98 -81 118 -129 8 -19 14 -60 14 -92 1 -141 -105 -249 -244 -250
-101 0 -180 48 -223 137 -71 144 0 303 156 354 38 13 136 2 179 -20z"/>
<path d="M3038 3801 c-105 -34 -178 -103 -230 -216 -31 -69 -32 -196 0 -275
96 -242 422 -311 606 -127 143 143 149 364 15 512 -101 109 -255 151 -391 106z
m191 -117 c67 -19 141 -90 159 -150 17 -59 15 -142 -7 -189 -24 -53 -85 -111
-138 -131 -65 -25 -159 -16 -219 22 -58 35 -108 112 -119 179 -13 93 46 209
129 252 70 36 118 40 195 17z"/>
</g>
</svg>
